Coordinates
version=1
nRows=15
nColumns=33
inDegrees=yes

Units are S.I. units (second, meters, Newtons, ...)
Angles are in degrees.

endheader
time	ground_thorax_rot_x	ground_thorax_rot_y	ground_thorax_rot_z	ground_thorax_tx	ground_thorax_ty	ground_thorax_tz	clav_prot_r	clav_elev_r	scapula_abduction_r	scapula_elevation_r	scapula_upward_rot_r	scapula_winging_r	shoulder_elv_r	plane_of_elev_r	axial_rot_r	elbow_flexion_r	pro_sup_r	wrist_flex_r	wrist_dev_r	clav_prot_l	clav_elev_l	scapula_abduction_l	scapula_elevation_l	scapula_upward_rot_l	scapula_winging_l	shoulder_elv_l	plane_of_elev_l	axial_rot_l	elbow_flexion_l	pro_sup_l	wrist_flex_l	wrist_dev_l	
3.1600	-5.012541	3.060426	10.231410	-0.093082	1.028842	0.006745	17.019911	-9.943226	44.997581	-11.531849	26.603951	-14.648365	-2.188096	-50.525499	122.171752	-32.451832	-124.399992	-3.336066	5.179273	27.727094	-10.245484	-42.145007	-5.515490	-22.919536	15.720710	57.510561	1.758424	6.972043	11.597740	14.215747	14.435281	-4.369919	
3.1700	-4.900598	3.391638	10.141902	-0.092454	1.029261	0.006981	16.865254	-10.002152	44.994968	-11.668553	26.950405	-14.551935	-2.653594	-50.968487	121.674581	-32.205508	-125.149450	-2.383576	3.662404	27.436562	-10.558818	-41.611484	-5.371512	-23.130793	15.287077	57.922363	1.806269	6.721716	11.807929	14.131474	14.052309	-5.043500	
3.1800	-4.770805	3.699137	10.045242	-0.091779	1.029674	0.007213	16.708494	-10.062548	44.991403	-11.807341	27.300447	-14.453454	-3.138313	-51.450218	121.157590	-31.984427	-126.071744	-1.357183	2.038912	27.102114	-10.870735	-41.005202	-5.237461	-23.355220	14.807173	58.339506	1.847724	6.491177	12.067887	14.053092	13.627984	-5.776482	
3.1900	-4.678044	3.938476	9.977789	-0.091339	1.029823	0.007416	16.650101	-10.096355	44.985091	-11.867002	27.424499	-14.409114	-3.383622	-51.780859	120.888596	-31.909423	-126.912901	-0.738853	1.075564	26.829094	-10.992157	-40.534488	-5.197711	-23.450280	14.471660	58.530186	1.895723	6.457551	12.352852	14.027081	13.343851	-6.247764	
3.2000	-4.596230	4.108332	9.921354	-0.091002	1.029840	0.007600	16.650100	-10.122855	44.973650	-11.885613	27.409868	-14.390909	-3.506265	-52.055287	120.774837	-31.949975	-128.015119	-0.285417	0.422225	26.539046	-11.019105	-40.053360	-5.204797	-23.475321	14.159796	58.615054	1.920979	6.560853	12.673879	14.069731	13.086925	-6.623744	
3.2100	-4.518329	4.215132	9.877077	-0.090782	1.029750	0.007770	16.699938	-10.141902	44.953837	-11.866597	27.270748	-14.394739	-3.526122	-52.287781	120.773974	-32.102487	-129.332687	0.025302	0.044252	26.239560	-10.978237	-39.568958	-5.246771	-23.453434	13.868044	58.618332	1.918049	6.785775	13.039843	14.171427	12.863299	-6.918060	
3.2200	-4.440521	4.264537	9.840325	-0.090616	1.029607	0.007949	16.777307	-10.155575	44.916271	-11.820903	27.043483	-14.408138	-3.522564	-52.504952	120.816305	-32.372679	-130.894519	0.297385	-0.204237	25.913400	-10.913963	-39.043985	-5.306669	-23.425235	13.558784	58.604611	1.866548	7.114337	13.475063	14.316744	12.646145	-7.196862	
3.2300	-4.356458	4.279863	9.815131	-0.090505	1.029457	0.008147	16.860081	-10.162515	44.854115	-11.757281	26.767354	-14.421389	-3.552982	-52.728237	120.811760	-32.748341	-132.535505	0.578616	-0.395592	25.581366	-10.865864	-38.503995	-5.371388	-23.436194	13.235187	58.615660	1.767718	7.512660	13.994313	14.473213	12.458196	-7.484786	
3.2400	-4.273869	4.261154	9.798694	-0.090427	1.029305	0.008374	16.942994	-10.164112	44.756601	-11.675928	26.438486	-14.428639	-3.637360	-52.947773	120.764852	-33.254573	-134.284500	0.878214	-0.505734	25.241783	-10.832656	-37.946171	-5.443580	-23.489562	12.895799	58.665030	1.614022	7.986106	14.605925	14.649696	12.307065	-7.783895	
3.2500	-4.196028	4.209456	9.792617	-0.090413	1.029153	0.008607	17.032014	-10.177792	44.643219	-11.594803	26.072627	-14.426944	-3.776105	-53.192133	120.688051	-33.890724	-136.192541	1.178877	-0.485586	24.902235	-10.802767	-37.383661	-5.537412	-23.596385	12.552113	58.753137	1.424033	8.521152	15.311268	14.878809	12.251154	-8.086775	
3.2600	-4.126641	4.130332	9.792536	-0.090437	1.029007	0.008853	17.118476	-10.202072	44.493804	-11.510179	25.659617	-14.408311	-3.975383	-53.448033	120.591591	-34.674332	-138.243897	1.499328	-0.361595	24.557200	-10.772349	-36.808817	-5.652781	-23.748784	12.200436	58.880334	1.192741	9.105111	16.112155	15.156074	12.274503	-8.400387	
3.2700	-4.063251	4.034836	9.799458	-0.090508	1.028876	0.009098	17.193012	-10.240636	44.298487	-11.426713	25.206131	-14.364029	-4.226404	-53.723966	120.487229	-35.591587	-140.388121	1.841976	-0.151041	24.211792	-10.742243	-36.230441	-5.787559	-23.944079	11.846013	59.037878	0.927156	9.703836	16.998766	15.476277	12.371237	-8.723573	
3.2800	-4.004460	3.938922	9.806803	-0.090598	1.028795	0.009343	17.237000	-10.303477	44.017360	-11.349165	24.696674	-14.270038	-4.520444	-54.011864	120.369276	-36.648763	-142.579901	2.236390	0.120071	23.863047	-10.726980	-35.643105	-5.926129	-24.174198	11.481416	59.233261	0.614452	10.277811	17.972025	15.823427	12.505595	-9.066492	
3.2900	-3.948826	3.846207	9.811490	-0.090713	1.028745	0.009573	17.247170	-10.385968	43.658146	-11.277853	24.149350	-14.129672	-4.852677	-54.324602	120.252557	-37.829837	-144.726455	2.667319	0.421799	23.520283	-10.705554	-35.065085	-6.084277	-24.435543	11.123119	59.442350	0.271955	10.817968	19.039635	16.170364	12.679200	-9.421188	
3.3000	-3.895883	3.774467	9.818084	-0.090848	1.028705	0.009808	17.212882	-10.464170	43.197110	-11.189586	23.551592	-13.946384	-5.229229	-54.632828	120.105675	-39.139189	-146.545008	3.118576	0.717167	23.209146	-10.670596	-34.540144	-6.264859	-24.723436	10.799325	59.640033	-0.102192	11.319890	20.213484	16.440874	12.874000	-9.765284	
